# xmcd CD database file
#
# Track frame offsets:
#	150
#	122706
#	132752
#	138918
#	148604
#	157305
#	165503
#	174804
#	182665
#	190602
#
# Disc length: 2668 seconds
#
# Revision: 0
# Processed by: cddbd v1.5.1PL0 Copyright (c) Steve Scherf et al.
# Submitted via: CDex 1.51
#
DISCID=820a6a0a
DTITLE=BLACK GLOBE - オンリーワン+R 被虐のマーメイド美奈乃 予約特典 お楽しみディスク
DYEAR=2004
DGENRE=Game
TTITLE0=オーディオドラマ 「オンリーワン＋R 〜美奈乃先生 恥辱の教壇〜」
TTITLE1=Oog days
TTITLE2=Uneasy/Anger/Dislike
TTITLE3=Chaos Mind
TTITLE4=A day rises and a day sinks again. awaiting -darkness
TTITLE5=The foppish face
TTITLE6=Moonlight
TTITLE7="Bye-Bye" Petty every day
TTITLE8=brittle heart
TTITLE9=The end of a tale
EXTD=YEAR: 2004
EXTT0=
EXTT1=
EXTT2=
EXTT3=
EXTT4=
EXTT5=
EXTT6=
EXTT7=
EXTT8=
EXTT9=
PLAYORDER=
